<?xml version="1.0" standalone="no"?>
<!DOCTYPE svg PUBLIC "-//W3C//DTD SVG 1.1//EN" "http://www.w3.org/Graphics/SVG/1.1/DTD/svg11.dtd" >
<svg>
<metadata>
Created by FontForge 20090622 at Thu Feb  2 11:33:44 2017
 By deploy user
Copyright (c) 1990 Adobe Systems Incorporated.  All Rights Reserved.Rotis is a trademark of Agfa Corporation.
</metadata>
<defs>
<font id="RotisSansSerif-ExtraBold" horiz-adv-x="500" >
  <font-face 
    font-family="RotisSansSerif"
    font-weight="700"
    font-stretch="normal"
    units-per-em="1000"
    panose-1="0 0 0 0 0 0 0 0 0 0"
    ascent="800"
    descent="-200"
    x-height="476"
    cap-height="690"
    bbox="-73 -272 1250 975"
    underline-thickness="50"
    underline-position="-75"
    unicode-range="U+0020-U+FB02"
  />
<missing-glyph horiz-adv-x="296" 
 />
    <glyph glyph-name=".notdef" horiz-adv-x="296" 
 />
    <glyph glyph-name=".null" horiz-adv-x="0" 
 />
    <glyph glyph-name="nonmarkingreturn" horiz-adv-x="333" 
 />
    <glyph glyph-name="space" unicode=" " horiz-adv-x="296" 
 />
    <glyph glyph-name="exclam" unicode="!" horiz-adv-x="315" 
d="M126 0v137h137v-137h-137zM143 205l-8 485h119l-8 -485h-103z" />
    <glyph glyph-name="quotedbl" unicode="&#x22;" horiz-adv-x="426" 
d="M72 453l-19 237h135l-25 -237h-91zM258 453l-19 237h135l-25 -237h-91z" />
    <glyph glyph-name="numbersign" unicode="#" horiz-adv-x="593" 
d="M83 0l48 189h-69l20 80h70l24 95h-69l20 80h70l48 190h91l-48 -190h79l49 190h91l-49 -190h72l-21 -80h-71l-25 -95h72l-21 -80h-71l-48 -189h-91l48 189h-80l-48 -189h-91zM267 364l-24 -95h79l25 95h-80z" />
    <glyph glyph-name="dollar" unicode="$" horiz-adv-x="574" 
d="M259 -102v91q-104 6 -151.5 43t-55.5 112h129q0 -82 78 -95v267l-51.5 16t-50.5 22t-49 33.5t-31 47t-14 65.5q0 46 20.5 81t52 53t63 26.5t60.5 8.5v80h59v-80q89 -9 137 -50.5t56 -107.5h-129q-2 21 -3.5 30t-7 25.5t-19 26.5t-34.5 16v-243q3 -1 24 -7.5t29.5 -9.5
t29.5 -11t31.5 -15l28 -18.5t27 -24t20 -28.5t15 -36t4.5 -43q0 -46 -14 -79.5t-32.5 -52t-50 -30t-55 -15.5t-57.5 -7v-91h-59zM259 389v220q-64 -15 -64 -104q0 -86 64 -116zM318 292v-243q40 9 58.5 35t18.5 80q0 94 -77 128z" />
    <glyph glyph-name="percent" unicode="%" horiz-adv-x="889" 
d="M194 197q-165 0 -165 224t165 224q166 0 166 -224t-166 -224zM114 421q0 -169 80 -169q81 0 81 169t-81 169q-80 0 -80 -169zM695 -11q-165 0 -165 224t165 224q166 0 166 -224t-166 -224zM615 213q0 -84 18.5 -126.5t61.5 -42.5q81 0 81 169t-81 169q-43 0 -61.5 -42.5
t-18.5 -126.5zM290 0l232 634h76l-232 -634h-76z" />
    <glyph glyph-name="ampersand" unicode="&#x26;" horiz-adv-x="685" 
d="M386 85v-80q-62 -16 -117 -16q-99 0 -161 44t-62 141q0 47 13 80t36 51.5t45 27t51 13.5v2q-27 7 -42.5 13t-40 22t-37 44.5t-12.5 68.5q0 49 17.5 83.5t48.5 52.5t65 26t74 8q59 0 113 -18v-80q-47 26 -100 26q-47 0 -70 -29.5t-23 -75.5q0 -64 33.5 -85.5t97.5 -21.5
h138v210l111 66v-276h126v-71h-126v-156q0 -94 72 -94q22 0 54 13v-77q-35 -8 -80 -8q-80 0 -118.5 28t-38.5 99v195h-136q-29 0 -46 -1.5t-38.5 -8.5t-33.5 -21t-20 -40t-8 -63q0 -61 32 -88.5t85 -27.5q48 0 98 24z" />
    <glyph glyph-name="quotesingle" unicode="'" horiz-adv-x="241" 
d="M72 453l-19 237h135l-25 -237h-91z" />
    <glyph glyph-name="parenleft" unicode="(" horiz-adv-x="333" 
d="M311 -65v-80q-164 13 -215 146q-31 80 -32 265v47q0 186 17 262q33 142 151 180q35 12 79 15v-80q-24 -1 -42.5 -8.5t-32 -25.5t-23 -35.5t-15.5 -50t-9.5 -55t-4.5 -65t-1.5 -66.5t-0.5 -71t0.5 -71.5t1.5 -66.5t4.5 -65t9.5 -55.5t15.5 -49.5t23 -35.5t32 -26
t42.5 -8.5z" />
    <glyph glyph-name="parenright" unicode=")" horiz-adv-x="333" 
d="M24 -145v80q24 1 42.5 8.5t32 26t23 35.5t15.5 49.5t9.5 55.5t4.5 65t1.5 66.5t0.5 71.5t-0.5 71t-1.5 66.5t-4.5 65t-9.5 55t-15.5 50t-23 35.5t-32 25.5t-42.5 8.5v80q163 -13 215 -145q31 -81 32 -265v-47q0 -187 -17 -262q-32 -142 -150 -181q-35 -12 -80 -15z" />
    <glyph glyph-name="asterisk" unicode="*" horiz-adv-x="315" 
d="M111 392l-61 35l35 61l26 25l-2 2l-34 -10h-69v70h69l34 -10l2 2l-26 25l-35 63l61 35l36 -62l10 -36h2l8 36l36 62l60 -35l-35 -63l-25 -25l2 -2l35 10h69v-70h-69l-35 10l-2 -2l25 -25l35 -61l-60 -35l-36 60l-8 36h-2l-10 -36z" />
    <glyph glyph-name="plus" unicode="+" horiz-adv-x="593" 
d="M248 0v210h-189v90h189v187h97v-187h189v-90h-189v-210h-97z" />
    <glyph glyph-name="comma" unicode="," horiz-adv-x="241" 
d="M57 -100l18 237h125l-47 -237h-96z" />
    <glyph glyph-name="hyphen" unicode="-" horiz-adv-x="463" 
d="M46 204v108h372v-108h-372z" />
    <glyph glyph-name="period" unicode="." horiz-adv-x="241" 
d="M52 0v137h137v-137h-137z" />
    <glyph glyph-name="slash" unicode="/" horiz-adv-x="315" 
d="M-10 -136l229 897h106l-229 -897h-106z" />
    <glyph glyph-name="zero" unicode="0" horiz-adv-x="556" 
d="M278 -11q-65 0 -113 27t-75.5 74.5t-40.5 104t-13 122.5t13 122.5t40.5 104t75.5 74.5t113 27t113 -27t75.5 -74.5t40.5 -104t13 -122.5t-13 -122.5t-40.5 -104t-75.5 -74.5t-113 -27zM161 317q0 -248 117 -248t117 248t-117 248t-117 -248z" />
    <glyph glyph-name="one" unicode="1" horiz-adv-x="556" 
d="M244 0v544l-129 -73v95l149 79h94v-645h-114z" />
    <glyph glyph-name="two" unicode="2" horiz-adv-x="556" 
d="M48 0v95q27 20 72 61t99 98t92 119t38 107q0 40 -23 65t-64 25t-64 -24.5t-23 -59.5h-125q3 29 13.5 54t33 50t65.5 40t103 15q89 0 149 -44.5t60 -133.5q0 -42 -17 -85t-39 -75t-60.5 -70t-62 -57.5t-63.5 -50t-47 -36.5v-2h291v-91h-428z" />
    <glyph glyph-name="three" unicode="3" horiz-adv-x="556" 
d="M179 494h-125q0 60 54 105.5t153 45.5q93 0 149 -42.5t56 -123.5q0 -64 -30 -98.5t-72 -44.5v-2q55 -14 85 -48.5t30 -115.5q0 -90 -57 -135.5t-160 -45.5q-117 0 -167.5 44.5t-55.5 109.5h132q0 -29 20 -51.5t65 -22.5q98 0 98 112q0 36 -11 59.5t-32 34.5t-42 14.5
t-50 3.5v80q21 0 34.5 1t32 7t29 16.5t18.5 30.5t8 49q0 88 -79 88q-25 0 -41.5 -6t-25 -17.5t-12 -22.5t-4.5 -25z" />
    <glyph glyph-name="four" unicode="4" horiz-adv-x="556" 
d="M315 0v159h-287v79l268 396h129v-389h112v-86h-112v-159h-110zM313 516l-179 -271h181v271h-2z" />
    <glyph glyph-name="five" unicode="5" horiz-adv-x="556" 
d="M215 548l-9 -187q43 30 110 30q96 0 148.5 -52.5t52.5 -152.5q0 -101 -63.5 -149t-164.5 -48q-210 0 -226 155h132q10 -75 93 -75q104 0 104 123q0 124 -103 124q-31 0 -53.5 -14.5t-29.5 -31.5h-116l18 364h358v-86h-251z" />
    <glyph glyph-name="six" unicode="6" horiz-adv-x="556" 
d="M499 491h-125q0 26 -20 50t-60 24q-33 0 -54.5 -18t-31.5 -54t-13.5 -73t-3.5 -92q57 57 141 57q90 0 135 -53.5t45 -145.5q0 -93 -57 -145t-159 -52q-58 0 -100.5 17.5t-67 45.5t-39 73t-19 89t-4.5 104q0 80 10 136t35.5 101.5t73 67.5t119.5 22q98 0 144.5 -46.5
t50.5 -107.5zM195 189q0 -53 25 -89t73 -36q94 0 94 126q0 120 -94 120q-98 0 -98 -121z" />
    <glyph glyph-name="seven" unicode="7" horiz-adv-x="556" 
d="M128 0l228 548h-290v86h416v-85l-228 -549h-126z" />
    <glyph glyph-name="eight" unicode="8" horiz-adv-x="556" 
d="M278 -11q-221 0 -221 178q0 43 9.5 74t29.5 48.5t33.5 25t37.5 16.5q-22 9 -36 18t-31 26t-25.5 44t-8.5 63q0 84 59.5 123.5t152.5 39.5q212 0 212 -167q0 -35 -9 -61.5t-26.5 -43t-30.5 -24.5t-34 -18q26 -10 39 -17t32.5 -25t28.5 -48t9 -74q0 -178 -221 -178z
M188 473q0 -48 24.5 -75t65.5 -27q43 0 66.5 26.5t23.5 74.5q0 98 -90 98q-38 0 -64 -26.5t-26 -70.5zM179 185q0 -56 26.5 -88.5t72.5 -32.5q49 0 74 31.5t25 89.5q0 49 -24.5 80t-74.5 31q-48 0 -73.5 -31.5t-25.5 -79.5z" />
    <glyph glyph-name="nine" unicode="9" horiz-adv-x="556" 
d="M64 143h125q0 -26 20 -50t60 -24q30 0 49.5 18t29 53.5t12.5 73.5t3 92q-55 -57 -132 -57q-91 0 -135.5 53.5t-44.5 145.5q0 93 57 145t158 52q56 0 97 -17.5t64.5 -45.5t37.5 -72.5t18.5 -88.5t4.5 -104q0 -81 -9.5 -137t-34 -101.5t-70.5 -67.5t-115 -22
q-99 0 -145.5 46.5t-49.5 107.5zM176 444q0 -120 93 -120q89 0 89 121q0 53 -22.5 89t-65.5 36q-94 0 -94 -126z" />
    <glyph glyph-name="colon" unicode=":" horiz-adv-x="296" 
d="M116 0v137h137v-137h-137zM116 339v137h137v-137h-137z" />
    <glyph glyph-name="semicolon" unicode=";" horiz-adv-x="296" 
d="M104 -100l18 237h126l-48 -237h-96zM119 339v137h137v-137h-137z" />
    <glyph glyph-name="less" unicode="&#x3c;" horiz-adv-x="593" 
d="M535 0l-477 198v91l477 198v-91l-385 -153l385 -152v-91z" />
    <glyph glyph-name="equal" unicode="=" horiz-adv-x="593" 
d="M59 123v90h475v-90h-475zM59 296v90h475v-90h-475z" />
    <glyph glyph-name="greater" unicode="&#x3e;" horiz-adv-x="593" 
d="M58 0v91l386 152l-386 153v91l477 -198v-91z" />
    <glyph glyph-name="question" unicode="?" horiz-adv-x="463" 
d="M127 205v72q0 31 19 61.5t46 54.5l54 47t46 48t19 49q0 78 -104 78q-39 0 -82.5 -12t-68.5 -26v107q74 17 150 17q100 0 161.5 -40.5t61.5 -119.5q0 -40 -20 -75t-48.5 -60.5l-57 -49.5t-48.5 -51.5t-20 -56.5v-43h-108zM110 0v137h137v-137h-137z" />
    <glyph glyph-name="at" unicode="@" horiz-adv-x="1000" 
d="M816 14l27 -23q-35 -37 -124 -80.5t-199 -43.5q-179 0 -296 92.5t-117 238.5q0 178 134.5 312t314.5 134q154 0 257.5 -91t103.5 -232q0 -132 -86.5 -226.5t-194.5 -94.5q-42 0 -57 22t-15 49l-7 -7q-7 -8 -11.5 -12l-14 -12t-19 -13t-21.5 -10.5t-26.5 -8t-30.5 -2.5
q-57 0 -95 37.5t-38 105.5q0 72 37 148t98 127.5t124 51.5q28 0 50 -8t36 -23t18.5 -22t11.5 -21l22 54h87l-84 -207q-61 -155 -61 -170q0 -27 30 -27q29 0 63 18.5t65 51.5t52 86t21 113q0 124 -91 198t-221 74q-94 0 -183.5 -57t-144.5 -149t-55 -188q0 -125 95 -205.5
t253 -80.5q170 0 289 98zM381 114q0 -67 69 -67q9 0 18 2t16 4.5t14.5 7.5l12.5 8.5t11.5 10.5l10 10.5t9 12t7 10.5t6.5 11l5 8q37 61 60.5 136.5t23.5 104.5q0 25 -17 44.5t-45 19.5q-45 0 -94 -61t-78 -137t-29 -125z" />
    <glyph glyph-name="A" unicode="A" horiz-adv-x="611" 
d="M0 0l236 690h141l235 -690h-122l-60 187h-248l-60 -187h-122zM305 579l-95 -303h192l-95 303h-2z" />
    <glyph glyph-name="B" unicode="B" horiz-adv-x="556" 
d="M72 0v690h212q33 0 63 -6t62.5 -22t51.5 -50.5t19 -83.5q0 -32 -8.5 -58t-19.5 -41.5t-29.5 -29t-29.5 -18.5t-28 -12v-2q149 -23 149 -176q0 -49 -15 -85t-37 -56t-54.5 -31.5t-60.5 -15t-63 -3.5h-212zM189 607v-200h47q62 0 93.5 20t31.5 81q0 60 -31 79.5t-94 19.5
h-47zM189 324v-241h47q33 0 58 4.5t49.5 16t38 36t13.5 61.5q0 123 -159 123h-47z" />
    <glyph glyph-name="C" unicode="C" horiz-adv-x="556" 
d="M523 132v-103q-94 -40 -188 -40q-146 0 -218 95.5t-72 263.5q0 106 26 182.5t88.5 123.5t157.5 47q114 0 173 -57t59 -143h-130q0 24 -3.5 42t-13.5 36.5t-31.5 28.5t-53.5 10q-43 0 -73 -23t-44.5 -63t-20 -80t-5.5 -86q0 -285 188 -285q73 0 161 51z" />
    <glyph glyph-name="D" unicode="D" horiz-adv-x="593" 
d="M75 0v690h171q165 0 234 -78.5t69 -264.5q0 -66 -9.5 -119.5t-25 -89t-40 -61.5t-49 -40.5t-57.5 -23t-60 -11t-62 -2.5h-171zM192 607v-524h54q93 0 133.5 55.5t40.5 208.5q0 136 -35.5 198t-138.5 62h-54z" />
    <glyph glyph-name="E" unicode="E" horiz-adv-x="519" 
d="M74 0v690h403v-89h-286v-199h271v-89h-271v-224h294v-89h-411z" />
    <glyph glyph-name="F" unicode="F" horiz-adv-x="481" 
d="M74 0v690h390v-89h-273v-199h258v-89h-258v-313h-117z" />
    <glyph glyph-name="G" unicode="G" horiz-adv-x="611" 
d="M556 402v-350q-28 -21 -86.5 -42t-130.5 -21q-148 0 -221 98t-73 259q0 355 273 355q116 0 173 -52t57 -141h-130q0 44 -24.5 77t-75.5 33q-43 0 -72.5 -21.5t-44.5 -61.5t-21 -85t-6 -104q0 -274 165 -274q75 0 100 27v220h-130v83h247z" />
    <glyph glyph-name="H" unicode="H" horiz-adv-x="630" 
d="M74 0v690h117v-286h248v286h117v-690h-117v315h-248v-315h-117z" />
    <glyph glyph-name="I" unicode="I" horiz-adv-x="259" 
d="M71 0v690h117v-690h-117z" />
    <glyph glyph-name="J" unicode="J" horiz-adv-x="389" 
d="M326 690v-504q0 -51 -8 -84t-31 -60.5t-68.5 -40t-115.5 -12.5q-55 0 -103 13v92q63 -22 102 -22q59 0 83 27t24 80v511h117z" />
    <glyph glyph-name="K" unicode="K" horiz-adv-x="574" 
d="M73 0v690h117v-301h2l222 301h142l-244 -328l263 -362h-142l-241 336h-2v-336h-117z" />
    <glyph glyph-name="L" unicode="L" horiz-adv-x="463" 
d="M75 0v690h117v-601h271v-89h-388z" />
    <glyph glyph-name="M" unicode="M" horiz-adv-x="852" 
d="M73 0v690h160l192 -551h2l193 551h159v-690h-107v544h-2l-190 -544h-108l-190 544h-2v-544h-107z" />
    <glyph glyph-name="N" unicode="N" horiz-adv-x="667" 
d="M74 0v690h144l266 -508h2v508h107v-690h-131l-279 533h-2v-533h-107z" />
    <glyph glyph-name="O" unicode="O" horiz-adv-x="648" 
d="M324 -11q-79 0 -134.5 26.5t-86.5 76.5t-44.5 112t-13.5 141t13.5 141t44.5 112t86.5 76.5t134.5 26.5q279 0 279 -356t-279 -356zM174 345q0 -273 150 -273t150 273t-150 273t-150 -273z" />
    <glyph glyph-name="P" unicode="P" 
d="M73 0v690h178q49 0 84.5 -6t75 -24.5t61 -61t21.5 -107.5q0 -58 -23.5 -99.5t-62.5 -61.5t-77 -28t-79 -8h-61v-294h-117zM190 607v-230h61q55 0 89 28.5t34 85.5q0 64 -31 90t-92 26h-61z" />
    <glyph glyph-name="Q" unicode="Q" horiz-adv-x="667" 
d="M656 0h-333q-79 0 -134.5 26t-86.5 74t-44.5 108t-13.5 137q0 79 13.5 141t44.5 112t86.5 76.5t134.5 26.5q279 0 279 -356q0 -177 -71 -262l125 7v-90zM173 345q0 -262 150 -262t150 262q0 273 -150 273t-150 -273z" />
    <glyph glyph-name="R" unicode="R" horiz-adv-x="556" 
d="M72 0v690h209q222 0 222 -181q0 -74 -37 -109.5t-100 -50.5v-2q28 -6 48.5 -18t31.5 -23t20.5 -33.5t12.5 -35.5l10 -43l42 -194h-119l-32 149q-10 47 -18 70t-23.5 43.5t-39.5 27t-64 6.5h-46v-296h-117zM189 607v-228h46q67 0 108 24t41 93q0 54 -26.5 82.5t-76.5 28.5
h-92z" />
    <glyph glyph-name="S" unicode="S" horiz-adv-x="519" 
d="M440 682v-108q-3 1 -20 8t-23 9l-22 7.5t-26 8t-24.5 5.5t-28.5 4.5t-29 1.5q-46 0 -75 -21.5t-29 -63.5q0 -33 34 -62t82.5 -54t96.5 -54t82 -74.5t34 -103.5q0 -94 -69 -145t-185 -51q-69 0 -191 29v121l51.5 -30t61.5 -24t82 -13q63 0 92 28.5t29 67.5q0 35 -24.5 65
t-61 50l-79 45t-79 49t-61 62t-24.5 84q0 88 66.5 133t170.5 45q74 0 169 -19z" />
    <glyph glyph-name="T" unicode="T" horiz-adv-x="463" 
d="M173 0v601h-173v89h463v-89h-173v-601h-117z" />
    <glyph glyph-name="U" unicode="U" horiz-adv-x="611" 
d="M545 690v-479q0 -111 -62.5 -166.5t-176.5 -55.5q-111 0 -175.5 56t-64.5 166v479h117v-479q0 -139 123 -139q122 0 122 139v479h117z" />
    <glyph glyph-name="V" unicode="V" horiz-adv-x="574" 
d="M214 0l-231 690h122l180 -555h2l183 555h122l-237 -690h-141z" />
    <glyph glyph-name="W" unicode="W" horiz-adv-x="907" 
d="M156 0l-133 690h107l99 -519h2l176 519h94l178 -519h2l97 519h107l-130 -690h-122l-178 510h-2l-175 -510h-122z" />
    <glyph glyph-name="X" unicode="X" horiz-adv-x="574" 
d="M0 0l222 364l-195 326h128l133 -215l129 215h130l-194 -326l222 -364h-132l-155 254l-155 -254h-133z" />
    <glyph glyph-name="Y" unicode="Y" horiz-adv-x="537" 
d="M210 0v320l-227 370h133l153 -248l153 248h133l-228 -370v-320h-117z" />
    <glyph glyph-name="Z" unicode="Z" 
d="M17 0v89l315 512h-298v89h434v-89l-315 -512h330v-89h-466z" />
    <glyph glyph-name="bracketleft" unicode="[" horiz-adv-x="352" 
d="M98 -126v896h243v-80h-131v-736h131v-80h-243z" />
    <glyph glyph-name="backslash" unicode="\" horiz-adv-x="315" 
d="M219 -136l-229 897h106l229 -897h-106z" />
    <glyph glyph-name="bracketright" unicode="]" horiz-adv-x="352" 
d="M11 -126v80h131v736h-131v80h243v-896h-243z" />
    <glyph glyph-name="asciicircum" unicode="^" horiz-adv-x="426" 
d="M62 518l120 172h62l120 -172h-81l-70 90l-70 -90h-81z" />
    <glyph glyph-name="underscore" unicode="_" 
d="M0 -125v50h500v-50h-500z" />
    <glyph glyph-name="grave" unicode="`" horiz-adv-x="330" 
d="M123 559l-83 167h120l46 -167h-83z" />
    <glyph glyph-name="a" unicode="a" horiz-adv-x="481" 
d="M311 0v55h-2q-32 -66 -124 -66q-61 0 -100.5 34t-39.5 91q0 44 21 75.5t49 47t69 24.5t66 11t55 3h6v47q0 87 -67 87q-73 0 -73 -73h-108q0 70 46 110.5t135 40.5q173 0 173 -148v-339h-106zM153 124q0 -57 59 -57q50 0 74.5 43.5t24.5 99.5q-63 0 -110.5 -21t-47.5 -65z
" />
    <glyph glyph-name="b" unicode="b" 
d="M170 690v-271h2q42 68 123 68q83 0 123.5 -65.5t40.5 -183.5q0 -249 -201 -249q-95 0 -147 54t-52 159v488h111zM170 238q0 -93 18.5 -132t69.5 -39q83 0 83 171q0 52 -4.5 86.5t-24 63t-54.5 28.5q-31 0 -52 -29t-28.5 -67t-7.5 -82z" />
    <glyph glyph-name="c" unicode="c" horiz-adv-x="444" 
d="M432 79v-68q-71 -22 -139 -22q-115 0 -185 66t-70 204q0 100 54 164t164 64q99 0 140 -49t41 -125h-118q0 96 -72 96q-44 0 -67.5 -36.5t-23.5 -93.5q0 -84 48.5 -148t147.5 -64q46 0 80 12z" />
    <glyph glyph-name="d" unicode="d" 
d="M324 0v66h-2q-9 -25 -43.5 -51t-75.5 -26q-163 0 -163 249q0 110 41 179.5t122 69.5q79 0 119 -68h2v271h111v-690h-111zM158 238q0 -163 82 -163q43 0 63.5 48.5t20.5 114.5q0 163 -84 163q-26 0 -43.5 -13.5t-25 -39t-10.5 -51t-3 -59.5z" />
    <glyph glyph-name="e" unicode="e" horiz-adv-x="463" 
d="M413 85v-77q-58 -19 -133 -19q-115 0 -177.5 71.5t-62.5 202.5q0 105 50 164.5t154 59.5q89 0 135 -52t46 -141v-27h-282q0 -21 5.5 -46t19 -53t33.5 -50t51.5 -36.5t69.5 -14.5q40 0 91 18zM146 334h174q0 30 -19 56t-65 26q-43 0 -65 -26.5t-25 -55.5z" />
    <glyph glyph-name="f" unicode="f" horiz-adv-x="370" 
d="M109 0v399h-87v77h87v65q0 77 49.5 118.5t145.5 41.5q68 0 111 -10v-85q-45 17 -87 17q-108 0 -108 -114v-33h140v-77h-140v-399h-111z" />
    <glyph glyph-name="g" unicode="g" 
d="M434 476v-509q0 -101 -57.5 -146.5t-169.5 -45.5q-69 0 -149 19v109q76 -42 147 -42q39 0 65 12.5t38 34.5t16 43t4 49v74h-2q-44 -74 -123 -74q-46 0 -79 20.5t-50.5 57t-25.5 78.5t-8 93q0 102 41.5 170t121.5 68q28 0 50 -6.5t36.5 -19.5t20.5 -20.5t16 -21.5h2v57
h106zM158 249q0 -163 82 -163q30 0 51 27.5t29 63t8 72.5q0 36 -7 68t-28 58t-53 26q-82 0 -82 -152z" />
    <glyph glyph-name="h" unicode="h" horiz-adv-x="519" 
d="M69 0v690h111v-303h2q42 100 141 100q56 0 92.5 -39.5t36.5 -117.5v-330h-111v272q0 71 -9.5 91t-39.5 20q-52 0 -82 -56.5t-30 -120.5v-206h-111z" />
    <glyph glyph-name="i" unicode="i" horiz-adv-x="259" 
d="M74 0v476h111v-476h-111zM74 580v110h111v-110h-111z" />
    <glyph glyph-name="j" unicode="j" horiz-adv-x="259" 
d="M193 476v-506q0 -195 -228 -195q-6 0 -20 1t-18 1v80q32 -4 49 -4q65 0 85.5 35.5t20.5 111.5v476h111zM82 580v110h111v-110h-111z" />
    <glyph glyph-name="k" unicode="k" horiz-adv-x="481" 
d="M67 0v690h111v-396l154 182h133l-176 -206l192 -270h-133l-168 240h-2v-240h-111z" />
    <glyph glyph-name="l" unicode="l" horiz-adv-x="259" 
d="M74 0v690h111v-690h-111z" />
    <glyph glyph-name="m" unicode="m" horiz-adv-x="759" 
d="M69 0v476h111v-73h2q36 84 125 84q45 0 77.5 -24t42.5 -71h2q14 35 48.5 65t85.5 30q56 0 92.5 -39.5t36.5 -117.5v-330h-111v272q0 71 -9.5 91t-39.5 20q-44 0 -70 -56.5t-26 -120.5v-206h-111v272q0 71 -9.5 91t-39.5 20q-44 0 -70 -56.5t-26 -120.5v-206h-111z" />
    <glyph glyph-name="n" unicode="n" horiz-adv-x="519" 
d="M69 0v476h111v-89h2q42 100 141 100q56 0 92.5 -39.5t36.5 -117.5v-330h-111v272q0 71 -9.5 91t-39.5 20q-52 0 -82 -56.5t-30 -120.5v-206h-111z" />
    <glyph glyph-name="o" unicode="o" 
d="M250 -11q-102 0 -156 65.5t-54 183.5t54 183.5t156 65.5t156 -65.5t54 -183.5t-54 -183.5t-156 -65.5zM158 238q0 -38 3.5 -65t12.5 -53t28 -39.5t48 -13.5t48 13.5t28 39.5t12.5 53t3.5 65t-3.5 65t-12.5 53t-28 39.5t-48 13.5t-48 -13.5t-28 -39.5t-12.5 -53t-3.5 -65z
" />
    <glyph glyph-name="p" unicode="p" 
d="M66 -214v690h111v-66h2q10 25 43.5 51t74.5 26q164 0 164 -249q0 -111 -41 -180t-123 -69q-75 0 -118 68h-2v-271h-111zM177 238q0 -163 83 -163q35 0 54.5 26t24 58t4.5 79q0 163 -83 163q-42 0 -62.5 -49t-20.5 -114z" />
    <glyph glyph-name="q" unicode="q" 
d="M324 -214v271h-2q-40 -68 -119 -68q-81 0 -122 69.5t-41 179.5q0 249 163 249q41 0 75.5 -26t43.5 -51h2v66h111v-690h-111zM158 238q0 -34 3 -59.5t10.5 -51t25 -39t43.5 -13.5q84 0 84 163q0 65 -20.5 114t-63.5 49q-82 0 -82 -163z" />
    <glyph glyph-name="r" unicode="r" horiz-adv-x="352" 
d="M67 0v476h111v-88h2q13 23 22.5 36t27.5 30t44 25t60 8v-116q-84 0 -120 -37.5t-36 -124.5v-209h-111z" />
    <glyph glyph-name="s" unicode="s" horiz-adv-x="370" 
d="M315 469v-94q-64 32 -106 32q-28 0 -51 -12t-23 -32q0 -17 21.5 -34.5t52.5 -35.5t61.5 -38.5t52 -52.5t21.5 -70q0 -71 -49 -107t-131 -36q-66 0 -126 19v96q66 -29 121 -29q82 0 82 43q0 15 -21 32.5t-51.5 36.5t-60.5 40.5t-51 53t-21 66.5q0 66 46.5 103t124.5 37
q39 0 108 -18z" />
    <glyph glyph-name="t" unicode="t" horiz-adv-x="370" 
d="M350 75v-78q-48 -8 -91 -8q-86 0 -116 34.5t-30 96.5v279h-93v77h93v113l111 67v-180h141v-77h-141v-225q0 -52 14.5 -79.5t60.5 -27.5q19 0 51 8z" />
    <glyph glyph-name="u" unicode="u" horiz-adv-x="519" 
d="M340 0v89h-2q-42 -100 -141 -100q-56 0 -92.5 39.5t-36.5 117.5v330h111v-272q0 -71 9.5 -91t39.5 -20q51 0 81.5 56t30.5 121v206h111v-476h-111z" />
    <glyph glyph-name="v" unicode="v" horiz-adv-x="444" 
d="M168 0l-169 476h116l106 -326h2l107 326h116l-170 -476h-108z" />
    <glyph glyph-name="w" unicode="w" horiz-adv-x="685" 
d="M140 0l-107 476h102l70 -326h2l98 326h76l98 -326h2l70 326h102l-107 -476h-111l-91 304h-2l-91 -304h-111z" />
    <glyph glyph-name="x" unicode="x" horiz-adv-x="481" 
d="M0 0l180 248l-157 228h127l91 -130l91 130h127l-154 -223l177 -253h-128l-113 163l-114 -163h-127z" />
    <glyph glyph-name="y" unicode="y" horiz-adv-x="444" 
d="M107 -214l68 208l-176 482h116l110 -321h2l103 321h116l-237 -690h-102z" />
    <glyph glyph-name="z" unicode="z" horiz-adv-x="389" 
d="M17 0v77l218 322h-205v77h333v-77l-218 -322h227v-77h-355z" />
    <glyph glyph-name="braceleft" unicode="{" horiz-adv-x="556" 
d="M434 -247v-25q-80 3 -145.5 52t-65.5 118q0 36 12 96q16 80 16 94q0 44 -32 78t-78 49v24q47 15 78.5 47.5t31.5 79.5q0 14 -16 94q-12 60 -12 96q0 69 65.5 118t145.5 52v-25q-52 -12 -79.5 -50.5t-27.5 -85.5q0 -29 7 -85t7 -79q0 -39 -15.5 -70t-45.5 -52t-47 -30
t-47 -22q23 -10 36 -16.5t39 -23t41 -33.5t27 -44t12 -57q0 -23 -7 -79t-7 -85q0 -47 27.5 -85.5t79.5 -50.5z" />
    <glyph glyph-name="bar" unicode="|" horiz-adv-x="296" 
d="M100 -126v896h97v-896h-97z" />
    <glyph glyph-name="braceright" unicode="}" horiz-adv-x="556" 
d="M125 -272v25q52 12 79.5 50.5t27.5 85.5q0 29 -7 85t-7 79q0 30 12 57t27 44t41 33.5t39 23t36 16.5q-30 13 -47 22t-47 30t-45.5 52t-15.5 70q0 23 7 79t7 85q0 47 -27.5 85.5t-79.5 50.5v25q80 -3 145.5 -52t65.5 -118q0 -36 -12 -96q-16 -80 -16 -94q0 -47 31.5 -79.5
t78.5 -47.5v-24q-46 -15 -78 -49t-32 -78q0 -14 16 -94q12 -60 12 -96q0 -69 -65.5 -118t-145.5 -52z" />
    <glyph glyph-name="asciitilde" unicode="~" horiz-adv-x="611" 
d="M65 171v91q0 43 21 71t60 28q9 0 18.5 -1.5t15.5 -3t15 -5t14 -6t15 -8t15 -7.5l152 -75q40 -22 52 -22q19 0 19 35v71h83v-78q0 -113 -95 -113q-33 0 -88 30l-149 73q-38 19 -45 19q-20 0 -20 -47v-52h-83z" />
    <glyph glyph-name="exclamdown" unicode="&#xa1;" horiz-adv-x="315" 
d="M61 -136l8 485h103l8 -485h-119zM52 417v137h137v-137h-137z" />
    <glyph glyph-name="cent" unicode="&#xa2;" horiz-adv-x="481" 
d="M225 -105v94q-192 33 -192 269q0 108 51.5 166t140.5 63v83h50v-83q76 -9 125 -52.5t49 -121.5h-114q0 101 -60 124v-388q21 -7 50 -7q62 0 110 24v-47q-71 -30 -160 -30v-94h-50zM225 76v361q-36 -12 -51.5 -52.5t-15.5 -112.5q0 -123 67 -196z" />
    <glyph glyph-name="sterling" unicode="&#xa3;" 
d="M106 0v292h-74v71h74v149q0 80 54 117t144 37q97 0 149.5 -47t54.5 -110h-125q-3 16 -5.5 24.5t-10.5 22.5t-24.5 21t-40.5 7q-48 0 -66 -26.5t-18 -74.5v-120h144v-71h-144v-195h268v-97h-380z" />
    <glyph glyph-name="currency" unicode="&#xa4;" 
d="M45 83l-30 31l67 66q-47 51 -47 136q0 79 48 139l-70 69l32 31l69 -68q64 46 137 46q72 0 136 -46l69 68l32 -31l-70 -69q48 -51 48 -139q0 -82 -47 -136l67 -66l-30 -31l-66 66q-63 -47 -139 -47q-80 0 -140 47zM251 492q-73 0 -124 -51.5t-51 -124.5q0 -71 51.5 -122
t123.5 -51q71 0 122.5 51t51.5 122q0 73 -51 124.5t-123 51.5z" />
    <glyph glyph-name="yen" unicode="&#xa5;" horiz-adv-x="537" 
d="M210 320l-43 70h-148v68h106l-143 232h133l154 -248l152 248h133l-142 -232h105v-68h-147l-43 -70v-46h190v-68h-190v-206h-117v206h-191v68h191v46z" />
    <glyph glyph-name="brokenbar" unicode="&#xa6;" horiz-adv-x="296" 
d="M100 -126v359h97v-359h-97zM100 411v359h97v-359h-97z" />
    <glyph glyph-name="section" unicode="&#xa7;" 
d="M426 675v-91q-90 39 -170 39q-35 0 -58 -13t-23 -31q0 -25 30.5 -44t73.5 -34t86 -32.5t73.5 -49t30.5 -74.5t-20 -72.5t-44 -43.5l5 -5l6.5 -6.5t6.5 -7.5t7.5 -9.5t6.5 -10.5t6 -13t4.5 -14.5t3.5 -17.5t1 -19q0 -64 -63.5 -100.5t-151.5 -36.5q-86 0 -168 26v92
q108 -40 172 -40q91 0 91 49q0 24 -31 44.5t-75 37.5t-88 36.5t-75 50.5t-31 70q0 70 67 119q-44 41 -44 90q0 48 31.5 80t74.5 44.5t93 12.5q81 0 172 -26zM125 394q0 -25 35.5 -47t101 -48t92.5 -41q22 28 22 50q0 14 -14 28.5t-40.5 28t-52.5 25l-62 26.5t-57 25
q-25 -25 -25 -47z" />
    <glyph glyph-name="dieresis" unicode="&#xa8;" horiz-adv-x="330" 
d="M0 570v111h123v-111h-123zM206 570v111h123v-111h-123z" />
    <glyph glyph-name="copyright" unicode="&#xa9;" 
d="M250 231q-97 0 -166 69t-69 166t69 166t166 69t166 -69t69 -166q0 -98 -68.5 -166.5t-166.5 -68.5zM50 466q0 -82 59 -141t141 -59t141 59t59 141t-59 141t-141 59t-141 -59t-59 -141zM331 407l26 -32q-43 -39 -95 -39q-55 0 -96 38.5t-41 95.5q0 56 41 95t96 39
q48 0 95 -39l-26 -33q-34 31 -69 31t-64 -25.5t-29 -67.5q0 -43 28.5 -68t60.5 -25q9 0 16.5 1t14.5 3.5l11.5 4t10 5.5t7.5 5t8 6z" />
    <glyph glyph-name="ordfeminine" unicode="&#xaa;" horiz-adv-x="278" 
d="M178 290v31h-2q-16 -36 -68 -36q-34 0 -55.5 18.5t-21.5 49.5q0 88 147 88v27q0 48 -37 48q-39 0 -39 -41h-61q0 40 27 61.5t75 21.5q40 0 65.5 -18t25.5 -57v-193h-56zM91 358q0 -31 32 -31q27 0 41 24.5t14 54.5q-11 0 -23.5 -2t-28 -6.5t-25.5 -14.5t-10 -25z" />
    <glyph glyph-name="guillemotleft" unicode="&#xab;" horiz-adv-x="407" 
d="M102 60l-71 193l71 193h103l-63 -193l63 -193h-103zM269 60l-71 193l71 193h103l-63 -193l63 -193h-103z" />
    <glyph glyph-name="logicalnot" unicode="&#xac;" horiz-adv-x="593" 
d="M439 37v173h-381v90h478v-263h-97z" />
    <glyph glyph-name="registered" unicode="&#xae;" 
d="M250 231q-97 0 -166 69t-69 166t69 166t166 69t166 -69t69 -166q0 -98 -68.5 -166.5t-166.5 -68.5zM50 466q0 -82 59 -141t141 -59t141 59t59 141t-59 141t-141 59t-141 -59t-59 -141zM161 348v248h83q29 0 48.5 -4.5t36 -23t16.5 -52.5q0 -20 -9 -34t-14 -16.5
l-20 -10.5l46 -107h-50l-38 100h-54v-100h-45zM206 553v-65h54q38 0 38 32q0 33 -42 33h-50z" />
    <glyph glyph-name="macron" unicode="&#xaf;" horiz-adv-x="330" 
d="M12 559v77h306v-77h-306z" />
    <glyph glyph-name="degree" unicode="&#xb0;" horiz-adv-x="352" 
d="M176 413q-48 0 -82 34t-34 82t34 82t82 34t82 -34t34 -82t-34 -82t-82 -34zM117 529q0 -25 17 -42t42 -17t42 17t17 42t-17 42t-42 17t-42 -17t-17 -42z" />
    <glyph glyph-name="plusminus" unicode="&#xb1;" horiz-adv-x="593" 
d="M59 -137v90h475v-90h-475zM248 0v210h-189v90h189v187h97v-187h189v-90h-189v-210h-97z" />
    <glyph glyph-name="twosuperior" unicode="&#xb2;" horiz-adv-x="389" 
d="M38 202v64q33 28 71.5 64t86 99t47.5 102q0 26 -15.5 43.5t-41.5 17.5q-32 0 -47 -16.5t-15 -40.5h-85q12 110 147 110q60 0 101 -31.5t41 -91.5q0 -37 -15 -71.5t-41.5 -63.5t-49.5 -49.5t-53 -43t-38 -29.5h199v-63h-292z" />
    <glyph glyph-name="threesuperior" unicode="&#xb3;" horiz-adv-x="389" 
d="M127 542h-85q0 41 37 72t104 31q61 0 100 -28.5t39 -80.5q0 -86 -69 -104v-2q38 -9 58.5 -33.5t20.5 -75.5q0 -127 -148 -127q-80 0 -114.5 30t-38.5 74h90q5 -51 58 -51q68 0 68 78q0 47 -25 63t-68 16v53q25 0 41 3.5t29 19t13 44.5q0 33 -11.5 50.5t-41.5 17.5
q-55 0 -57 -50z" />
    <glyph glyph-name="acute" unicode="&#xb4;" horiz-adv-x="330" 
d="M123 559l46 167h120l-83 -167h-83z" />
    <glyph glyph-name="mu" unicode="&#xb5;" horiz-adv-x="519" 
d="M70 -214v690h111v-272q0 -68 15 -96t55 -28t61.5 52.5t21.5 137.5v206h111v-333q0 -53 14.5 -69t50.5 -16v-60q-43 -9 -62 -9q-44 0 -71 17.5t-39 61.5q-37 -79 -113 -79q-24 0 -44 11v-214h-111z" />
    <glyph glyph-name="paragraph" unicode="&#xb6;" horiz-adv-x="556" 
d="M315 -215v437q-31 6 -58 14.5t-58 26.5t-53 41.5t-37 60.5t-16 83q0 64 26.5 111t63.5 71.5t89.5 39t89 17.5t78.5 3h69v-39h-70v-866h-38v865q-18 -1 -49 -5v-860h-37z" />
    <glyph glyph-name="periodcentered" unicode="&#xb7;" horiz-adv-x="241" 
d="M59 256v123h123v-123h-123z" />
    <glyph glyph-name="cedilla" unicode="&#xb8;" horiz-adv-x="330" 
d="M196 16l-19 -81q2 0 6.5 0.5t7.5 0.5q35 0 66 -21.5t31 -69.5q0 -45 -29.5 -73.5t-85.5 -28.5q-36 0 -75 21v63q38 -26 67 -26q21 0 32.5 13.5t11.5 30.5q0 29 -22.5 41.5t-50.5 12.5q-9 0 -25 -4l28 121h57z" />
    <glyph glyph-name="onesuperior" unicode="&#xb9;" horiz-adv-x="389" 
d="M171 202v375l-88 -50v65l102 53h64v-443h-78z" />
    <glyph glyph-name="ordmasculine" unicode="&#xba;" horiz-adv-x="278" 
d="M139 285q-116 0 -116 136q0 137 116 137t116 -137q0 -136 -116 -136zM88 421q0 -94 51 -94t51 94q0 95 -51 95t-51 -95z" />
    <glyph glyph-name="guillemotright" unicode="&#xbb;" horiz-adv-x="407" 
d="M37 60l63 193l-63 193h103l71 -193l-71 -193h-103zM204 60l63 193l-63 193h103l71 -193l-71 -193h-103z" />
    <glyph glyph-name="onequarter" unicode="&#xbc;" horiz-adv-x="889" 
d="M687 0v107h-195v55l183 271h88v-265h76v-61h-76v-107h-76zM685 354l-121 -186h123v186h-2zM138 202v375l-88 -50v65l102 53h64v-443h-78zM257 0l232 634h76l-232 -634h-76z" />
    <glyph glyph-name="onehalf" unicode="&#xbd;" horiz-adv-x="889" 
d="M159 202v375l-88 -50v65l102 53h64v-443h-78zM255 0l232 634h77l-233 -634h-76zM526 0v65q34 28 72 64t85.5 98.5t47.5 102.5q0 26 -15 43.5t-41 17.5q-63 0 -63 -58h-85q3 21 9 37.5t21 35t44.5 28.5t72.5 10q60 0 101 -32t41 -92q0 -36 -15 -71t-41 -63.5t-49.5 -49
t-53 -43t-38.5 -30.5h199v-63h-292z" />
    <glyph glyph-name="threequarters" unicode="&#xbe;" horiz-adv-x="889" 
d="M720 0v107h-195v55l183 271h88v-265h76v-61h-76v-107h-76zM718 354l-121 -186h123v186h-2zM127 542h-85q0 41 37 72t104 31q61 0 100 -28.5t39 -80.5q0 -86 -69 -104v-2q38 -9 58.5 -33.5t20.5 -75.5q0 -127 -148 -127q-80 0 -114.5 30t-38.5 74h90q5 -51 58 -51
q68 0 68 78q0 47 -25 63t-68 16v53q25 0 41 3.5t29 19t13 44.5q0 33 -11.5 50.5t-41.5 17.5q-55 0 -57 -50zM290 0l233 634h76l-232 -634h-77z" />
    <glyph glyph-name="questiondown" unicode="&#xbf;" horiz-adv-x="463" 
d="M406 -23v-107q-76 -17 -151 -17q-99 0 -161 40.5t-62 119.5q0 40 20 75t48.5 60.5l57 49.5t48.5 51.5t20 56.5v43h109v-72q0 -31 -19 -61.5t-46.5 -54.5l-54.5 -47t-46 -48t-19 -49q0 -78 105 -78q38 0 81.5 12t69.5 26zM214 417v137h137v-137h-137z" />
    <glyph glyph-name="Agrave" unicode="&#xc0;" horiz-adv-x="611" 
d="M0 0l236 690h141l235 -690h-122l-60 187h-248l-60 -187h-122zM305 579l-95 -303h192l-95 303h-2zM264 773l-83 167h120l46 -167h-83z" />
    <glyph glyph-name="Aacute" unicode="&#xc1;" horiz-adv-x="611" 
d="M0 0l236 690h141l235 -690h-122l-60 187h-248l-60 -187h-122zM305 579l-95 -303h192l-95 303h-2zM264 773l46 167h120l-83 -167h-83z" />
    <glyph glyph-name="Acircumflex" unicode="&#xc2;" horiz-adv-x="611" 
d="M0 0l236 690h141l235 -690h-122l-60 187h-248l-60 -187h-122zM305 579l-95 -303h192l-95 303h-2zM155 773l97 149h108l97 -149h-81l-70 84l-70 -84h-81z" />
    <glyph glyph-name="Atilde" unicode="&#xc3;" horiz-adv-x="611" 
d="M0 0l236 690h141l235 -690h-122l-60 187h-248l-60 -187h-122zM305 579l-95 -303h192l-95 303h-2zM227 782h-59q0 73 14 105t53 32q25 0 75 -33q52 -33 58 -33q10 0 13.5 11.5t3.5 45.5h59q0 -78 -12.5 -107.5t-55.5 -29.5q-30 0 -77 30.5t-55 30.5q-10 0 -13.5 -10.5
t-3.5 -41.5z" />
    <glyph glyph-name="Adieresis" unicode="&#xc4;" horiz-adv-x="611" 
d="M0 0l236 690h141l235 -690h-122l-60 187h-248l-60 -187h-122zM305 579l-95 -303h192l-95 303h-2zM141 784v111h123v-111h-123zM347 784v111h123v-111h-123z" />
    <glyph glyph-name="Aring" unicode="&#xc5;" horiz-adv-x="611" 
d="M0 0l236 690h141l235 -690h-122l-60 187h-248l-60 -187h-122zM305 579l-95 -303h192l-95 303h-2zM306 773q-41 0 -71 30t-30 71t30 71t71 30t71 -30t30 -71t-30 -71t-71 -30zM263 874q0 -18 12.5 -30.5t30.5 -12.5t30.5 12.5t12.5 30.5t-12.5 30.5t-30.5 12.5
t-30.5 -12.5t-12.5 -30.5z" />
    <glyph glyph-name="AE" unicode="&#xc6;" horiz-adv-x="870" 
d="M1 0l390 690h439v-89h-267l19 -238h233v-89h-226l15 -185h234v-89h-340l-22 274h-200l-142 -274h-133zM448 606l-125 -243h145l-18 243h-2z" />
    <glyph glyph-name="Ccedilla" unicode="&#xc7;" horiz-adv-x="556" 
d="M234 -105l24 103q-107 23 -160 114.5t-53 235.5q0 106 26 182.5t88.5 123.5t157.5 47q114 0 173 -57t59 -143h-130q0 24 -3.5 42t-13.5 36.5t-31.5 28.5t-53.5 10q-43 0 -73 -23t-44.5 -63t-20 -80t-5.5 -86q0 -285 188 -285q73 0 161 51v-103q-94 -40 -188 -40
q-16 0 -22 1l-13 -55q2 0 6.5 0.5t7.5 0.5q35 0 66 -21.5t31 -69.5q0 -45 -29.5 -73.5t-85.5 -28.5q-36 0 -75 21v63q38 -26 67 -26q21 0 32.5 13.5t11.5 30.5q0 29 -22.5 41.5t-50.5 12.5q-9 0 -25 -4z" />
    <glyph glyph-name="Egrave" unicode="&#xc8;" horiz-adv-x="519" 
d="M74 0v690h403v-89h-286v-199h271v-89h-271v-224h294v-89h-411zM233 773l-83 167h120l46 -167h-83z" />
    <glyph glyph-name="Eacute" unicode="&#xc9;" horiz-adv-x="519" 
d="M74 0v690h403v-89h-286v-199h271v-89h-271v-224h294v-89h-411zM228 773l46 167h120l-83 -167h-83z" />
    <glyph glyph-name="Ecircumflex" unicode="&#xca;" horiz-adv-x="519" 
d="M74 0v690h403v-89h-286v-199h271v-89h-271v-224h294v-89h-411zM119 773l97 149h108l97 -149h-81l-70 84l-70 -84h-81z" />
    <glyph glyph-name="Edieresis" unicode="&#xcb;" horiz-adv-x="519" 
d="M74 0v690h403v-89h-286v-199h271v-89h-271v-224h294v-89h-411zM110 784v111h123v-111h-123zM316 784v111h123v-111h-123z" />
    <glyph glyph-name="Igrave" unicode="&#xcc;" horiz-adv-x="259" 
d="M71 0v690h117v-690h-117zM88 773l-83 167h120l46 -167h-83z" />
    <glyph glyph-name="Iacute" unicode="&#xcd;" horiz-adv-x="259" 
d="M71 0v690h117v-690h-117zM88 773l46 167h120l-83 -167h-83z" />
    <glyph glyph-name="Icircumflex" unicode="&#xce;" horiz-adv-x="259" 
d="M71 0v690h117v-690h-117zM-21 773l97 149h108l97 -149h-81l-70 84l-70 -84h-81z" />
    <glyph glyph-name="Idieresis" unicode="&#xcf;" horiz-adv-x="259" 
d="M71 0v690h117v-690h-117zM-35 784v111h123v-111h-123zM171 784v111h123v-111h-123z" />
    <glyph glyph-name="Eth" unicode="&#xd0;" horiz-adv-x="593" 
d="M75 0v327h-75v63h75v300h171q165 0 234 -78.5t69 -264.5q0 -66 -9.5 -119.5t-25 -89t-40 -61.5t-49 -40.5t-57.5 -23t-60 -11t-62 -2.5h-171zM192 327v-244h54q93 0 133.5 55.5t40.5 208.5q0 136 -35.5 198t-138.5 62h-54v-217h125v-63h-125z" />
    <glyph glyph-name="Ntilde" unicode="&#xd1;" horiz-adv-x="667" 
d="M74 0v690h144l266 -508h2v508h107v-690h-131l-279 533h-2v-533h-107zM255 782h-59q0 73 14 105t53 32q25 0 75 -33q52 -33 58 -33q10 0 13.5 11.5t3.5 45.5h59q0 -78 -12.5 -107.5t-55.5 -29.5q-30 0 -77 30.5t-55 30.5q-10 0 -13.5 -10.5t-3.5 -41.5z" />
    <glyph glyph-name="Ograve" unicode="&#xd2;" horiz-adv-x="648" 
d="M324 -11q-79 0 -134.5 26.5t-86.5 76.5t-44.5 112t-13.5 141t13.5 141t44.5 112t86.5 76.5t134.5 26.5q279 0 279 -356t-279 -356zM174 345q0 -273 150 -273t150 273t-150 273t-150 -273zM282 773l-83 167h120l46 -167h-83z" />
    <glyph glyph-name="Oacute" unicode="&#xd3;" horiz-adv-x="648" 
d="M324 -11q-79 0 -134.5 26.5t-86.5 76.5t-44.5 112t-13.5 141t13.5 141t44.5 112t86.5 76.5t134.5 26.5q279 0 279 -356t-279 -356zM174 345q0 -273 150 -273t150 273t-150 273t-150 -273zM282 773l46 167h120l-83 -167h-83z" />
    <glyph glyph-name="Ocircumflex" unicode="&#xd4;" horiz-adv-x="648" 
d="M324 -11q-79 0 -134.5 26.5t-86.5 76.5t-44.5 112t-13.5 141t13.5 141t44.5 112t86.5 76.5t134.5 26.5q279 0 279 -356t-279 -356zM174 345q0 -273 150 -273t150 273t-150 273t-150 -273zM173 773l97 149h108l97 -149h-81l-70 84l-70 -84h-81z" />
    <glyph glyph-name="Otilde" unicode="&#xd5;" horiz-adv-x="648" 
d="M324 -11q-79 0 -134.5 26.5t-86.5 76.5t-44.5 112t-13.5 141t13.5 141t44.5 112t86.5 76.5t134.5 26.5q279 0 279 -356t-279 -356zM174 345q0 -273 150 -273t150 273t-150 273t-150 -273zM245 782h-59q0 73 14 105t53 32q25 0 75 -33q52 -33 58 -33q10 0 13.5 11.5
t3.5 45.5h59q0 -78 -12.5 -107.5t-55.5 -29.5q-30 0 -77 30.5t-55 30.5q-10 0 -13.5 -10.5t-3.5 -41.5z" />
    <glyph glyph-name="Odieresis" unicode="&#xd6;" horiz-adv-x="648" 
d="M324 -11q-79 0 -134.5 26.5t-86.5 76.5t-44.5 112t-13.5 141t13.5 141t44.5 112t86.5 76.5t134.5 26.5q279 0 279 -356t-279 -356zM174 345q0 -273 150 -273t150 273t-150 273t-150 -273zM159 784v111h123v-111h-123zM365 784v111h123v-111h-123z" />
    <glyph glyph-name="multiply" unicode="&#xd7;" horiz-adv-x="593" 
d="M125 0l-65 71l169 176l-169 177l68 63l168 -170l168 170l68 -63l-167 -177l167 -176l-68 -71l-168 175z" />
    <glyph glyph-name="Oslash" unicode="&#xd8;" horiz-adv-x="648" 
d="M460 486l-237 -364q37 -50 101 -50q150 0 150 273q0 84 -14 141zM190 193l240 368q-37 57 -106 57q-150 0 -150 -273q0 -93 16 -152zM114 -46l-56 35l56 87q-69 88 -69 269q0 356 279 356q101 0 166 -46l53 81l57 -35l-62 -94q65 -88 65 -262q0 -356 -279 -356
q-96 0 -160 42z" />
    <glyph glyph-name="Ugrave" unicode="&#xd9;" horiz-adv-x="611" 
d="M545 690v-479q0 -111 -62.5 -166.5t-176.5 -55.5q-111 0 -175.5 56t-64.5 166v479h117v-479q0 -139 123 -139q122 0 122 139v479h117zM264 773l-83 167h120l46 -167h-83z" />
    <glyph glyph-name="Uacute" unicode="&#xda;" horiz-adv-x="611" 
d="M545 690v-479q0 -111 -62.5 -166.5t-176.5 -55.5q-111 0 -175.5 56t-64.5 166v479h117v-479q0 -139 123 -139q122 0 122 139v479h117zM264 773l46 167h120l-83 -167h-83z" />
    <glyph glyph-name="Ucircumflex" unicode="&#xdb;" horiz-adv-x="611" 
d="M545 690v-479q0 -111 -62.5 -166.5t-176.5 -55.5q-111 0 -175.5 56t-64.5 166v479h117v-479q0 -139 123 -139q122 0 122 139v479h117zM155 773l97 149h108l97 -149h-81l-70 84l-70 -84h-81z" />
    <glyph glyph-name="Udieresis" unicode="&#xdc;" horiz-adv-x="611" 
d="M545 690v-479q0 -111 -62.5 -166.5t-176.5 -55.5q-111 0 -175.5 56t-64.5 166v479h117v-479q0 -139 123 -139q122 0 122 139v479h117zM141 784v111h123v-111h-123zM347 784v111h123v-111h-123z" />
    <glyph glyph-name="Yacute" unicode="&#xdd;" horiz-adv-x="537" 
d="M210 0v320l-227 370h133l153 -248l153 248h133l-228 -370v-320h-117zM242 773l46 167h120l-83 -167h-83z" />
    <glyph glyph-name="Thorn" unicode="&#xde;" horiz-adv-x="611" 
d="M71 0v690h117v-120h117q60 0 97 -3.5t73.5 -15.5t55.5 -35t30.5 -63t11.5 -99q0 -65 -14.5 -105.5t-49 -63t-81.5 -30.5t-123 -8h-117v-147h-117zM188 487v-257h117q82 0 115.5 29t33.5 95q0 75 -32 104t-117 29h-117z" />
    <glyph glyph-name="germandbls" unicode="&#xdf;" horiz-adv-x="537" 
d="M60 0v458q0 40 4 71.5t17 65t34 55.5t58.5 36.5t87.5 14.5q89 0 143.5 -47.5t54.5 -126.5q0 -73 -30 -107.5t-83 -47.5v-2q67 -8 106 -50.5t39 -136.5q0 -90 -48 -142t-146 -52q-46 0 -83 11v65q38 -12 62 -12q52 0 74.5 38t22.5 96q0 89 -29 120t-98 34v63q49 0 72 26.5
t23 92.5q0 50 -19 82t-61 32q-24 0 -41 -9t-26 -22t-14.5 -33.5t-7 -37.5t-1.5 -40v-495h-111z" />
    <glyph glyph-name="agrave" unicode="&#xe0;" horiz-adv-x="481" 
d="M311 0v55h-2q-32 -66 -124 -66q-61 0 -100.5 34t-39.5 91q0 44 21 75.5t49 47t69 24.5t66 11t55 3h6v47q0 87 -67 87q-73 0 -73 -73h-108q0 70 46 110.5t135 40.5q173 0 173 -148v-339h-106zM153 124q0 -57 59 -57q50 0 74.5 43.5t24.5 99.5q-63 0 -110.5 -21t-47.5 -65z
M199 559l-83 167h120l46 -167h-83z" />
    <glyph glyph-name="aacute" unicode="&#xe1;" horiz-adv-x="481" 
d="M311 0v55h-2q-32 -66 -124 -66q-61 0 -100.5 34t-39.5 91q0 44 21 75.5t49 47t69 24.5t66 11t55 3h6v47q0 87 -67 87q-73 0 -73 -73h-108q0 70 46 110.5t135 40.5q173 0 173 -148v-339h-106zM153 124q0 -57 59 -57q50 0 74.5 43.5t24.5 99.5q-63 0 -110.5 -21t-47.5 -65z
M199 559l46 167h120l-83 -167h-83z" />
    <glyph glyph-name="acircumflex" unicode="&#xe2;" horiz-adv-x="481" 
d="M311 0v55h-2q-32 -66 -124 -66q-61 0 -100.5 34t-39.5 91q0 44 21 75.5t49 47t69 24.5t66 11t55 3h6v47q0 87 -67 87q-73 0 -73 -73h-108q0 70 46 110.5t135 40.5q173 0 173 -148v-339h-106zM153 124q0 -57 59 -57q50 0 74.5 43.5t24.5 99.5q-63 0 -110.5 -21t-47.5 -65z
M90 559l97 149h108l97 -149h-81l-70 84l-70 -84h-81z" />
    <glyph glyph-name="atilde" unicode="&#xe3;" horiz-adv-x="481" 
d="M311 0v55h-2q-32 -66 -124 -66q-61 0 -100.5 34t-39.5 91q0 44 21 75.5t49 47t69 24.5t66 11t55 3h6v47q0 87 -67 87q-73 0 -73 -73h-108q0 70 46 110.5t135 40.5q173 0 173 -148v-339h-106zM153 124q0 -57 59 -57q50 0 74.5 43.5t24.5 99.5q-63 0 -110.5 -21t-47.5 -65z
M162 568h-59q0 73 14 105t53 32q25 0 75 -33q52 -33 58 -33q10 0 13.5 11.5t3.5 45.5h59q0 -78 -12.5 -107.5t-55.5 -29.5q-30 0 -77 30.5t-55 30.5q-10 0 -13.5 -10.5t-3.5 -41.5z" />
    <glyph glyph-name="adieresis" unicode="&#xe4;" horiz-adv-x="481" 
d="M311 0v55h-2q-32 -66 -124 -66q-61 0 -100.5 34t-39.5 91q0 44 21 75.5t49 47t69 24.5t66 11t55 3h6v47q0 87 -67 87q-73 0 -73 -73h-108q0 70 46 110.5t135 40.5q173 0 173 -148v-339h-106zM153 124q0 -57 59 -57q50 0 74.5 43.5t24.5 99.5q-63 0 -110.5 -21t-47.5 -65z
M76 570v111h123v-111h-123zM282 570v111h123v-111h-123z" />
    <glyph glyph-name="aring" unicode="&#xe5;" horiz-adv-x="481" 
d="M311 0v55h-2q-32 -66 -124 -66q-61 0 -100.5 34t-39.5 91q0 44 21 75.5t49 47t69 24.5t66 11t55 3h6v47q0 87 -67 87q-73 0 -73 -73h-108q0 70 46 110.5t135 40.5q173 0 173 -148v-339h-106zM153 124q0 -57 59 -57q50 0 74.5 43.5t24.5 99.5q-63 0 -110.5 -21t-47.5 -65z
M241 559q-41 0 -71 30t-30 71t30 71t71 30t71 -30t30 -71t-30 -71t-71 -30zM198 660q0 -18 12.5 -30.5t30.5 -12.5t30.5 12.5t12.5 30.5t-12.5 30.5t-30.5 12.5t-30.5 -12.5t-12.5 -30.5z" />
    <glyph glyph-name="ae" unicode="&#xe6;" horiz-adv-x="741" 
d="M691 85v-77q-58 -19 -133 -19q-122 0 -192 90q-21 -38 -66 -64t-115 -26q-60 0 -100 38t-40 98q0 181 272 181q0 28 -2 43t-8.5 31t-22 22.5t-40.5 6.5q-34 0 -51.5 -18t-17.5 -40h-108q2 63 50 99.5t127 36.5q86 0 128 -53q58 53 150 53q88 0 134 -51.5t46 -141.5v-55
h-281q0 -24 9.5 -51.5t29 -55.5t56.5 -46.5t84 -18.5q40 0 91 18zM153 135q0 -32 17 -50t42 -18q61 0 83 44t22 128q-164 0 -164 -104zM424 306h174q0 110 -84 110q-46 0 -68 -32.5t-22 -77.5z" />
    <glyph glyph-name="ccedilla" unicode="&#xe7;" horiz-adv-x="444" 
d="M168 -105l25 109q-155 52 -155 255q0 100 54 164t164 64q99 0 140 -49t41 -125h-118q0 96 -72 96q-44 0 -67.5 -36.5t-23.5 -93.5q0 -84 48.5 -148t147.5 -64q46 0 80 12v-68q-71 -22 -139 -22q-23 0 -46 3l-13 -57q2 0 6.5 0.5t7.5 0.5q35 0 66 -21.5t31 -69.5
q0 -45 -29.5 -73.5t-85.5 -28.5q-36 0 -75 21v63q38 -26 67 -26q21 0 32.5 13.5t11.5 30.5q0 29 -22.5 41.5t-50.5 12.5q-9 0 -25 -4z" />
    <glyph glyph-name="egrave" unicode="&#xe8;" horiz-adv-x="463" 
d="M413 85v-77q-58 -19 -133 -19q-115 0 -177.5 71.5t-62.5 202.5q0 105 50 164.5t154 59.5q89 0 135 -52t46 -141v-27h-282q0 -21 5.5 -46t19 -53t33.5 -50t51.5 -36.5t69.5 -14.5q40 0 91 18zM146 334h174q0 30 -19 56t-65 26q-43 0 -65 -26.5t-25 -55.5zM200 559l-83 167
h120l46 -167h-83z" />
    <glyph glyph-name="eacute" unicode="&#xe9;" horiz-adv-x="463" 
d="M413 85v-77q-58 -19 -133 -19q-115 0 -177.5 71.5t-62.5 202.5q0 105 50 164.5t154 59.5q89 0 135 -52t46 -141v-27h-282q0 -21 5.5 -46t19 -53t33.5 -50t51.5 -36.5t69.5 -14.5q40 0 91 18zM146 334h174q0 30 -19 56t-65 26q-43 0 -65 -26.5t-25 -55.5zM200 559l46 167
h120l-83 -167h-83z" />
    <glyph glyph-name="ecircumflex" unicode="&#xea;" horiz-adv-x="463" 
d="M413 85v-77q-58 -19 -133 -19q-115 0 -177.5 71.5t-62.5 202.5q0 105 50 164.5t154 59.5q89 0 135 -52t46 -141v-27h-282q0 -21 5.5 -46t19 -53t33.5 -50t51.5 -36.5t69.5 -14.5q40 0 91 18zM146 334h174q0 30 -19 56t-65 26q-43 0 -65 -26.5t-25 -55.5zM81 559l97 149
h108l97 -149h-81l-70 84l-70 -84h-81z" />
    <glyph glyph-name="edieresis" unicode="&#xeb;" horiz-adv-x="463" 
d="M413 85v-77q-58 -19 -133 -19q-115 0 -177.5 71.5t-62.5 202.5q0 105 50 164.5t154 59.5q89 0 135 -52t46 -141v-27h-282q0 -21 5.5 -46t19 -53t33.5 -50t51.5 -36.5t69.5 -14.5q40 0 91 18zM146 334h174q0 30 -19 56t-65 26q-43 0 -65 -26.5t-25 -55.5zM67 570v111h123
v-111h-123zM273 570v111h123v-111h-123z" />
    <glyph glyph-name="igrave" unicode="&#xec;" horiz-adv-x="259" 
d="M74 0v476h111v-476h-111zM88 559l-83 167h120l46 -167h-83z" />
    <glyph glyph-name="iacute" unicode="&#xed;" horiz-adv-x="259" 
d="M74 0v476h111v-476h-111zM88 559l46 167h120l-83 -167h-83z" />
    <glyph glyph-name="icircumflex" unicode="&#xee;" horiz-adv-x="259" 
d="M74 0v476h111v-476h-111zM-21 559l97 149h108l97 -149h-81l-70 84l-70 -84h-81z" />
    <glyph glyph-name="idieresis" unicode="&#xef;" horiz-adv-x="259" 
d="M74 0v476h111v-476h-111zM-35 570v111h123v-111h-123zM171 570v111h123v-111h-123z" />
    <glyph glyph-name="eth" unicode="&#xf0;" 
d="M389 591l-54 -18q125 -140 125 -335q0 -118 -54 -183.5t-156 -65.5t-156 65.5t-54 183.5q0 119 49.5 184t144.5 65q40 0 75 -23l2 2q-38 52 -68 77l-106 -36l-16 46l75 26q-76 42 -109 53v3h167l37 -24l82 28zM158 238q0 -38 3.5 -65t12.5 -53t28 -39.5t48 -13.5t48 13.5
t28 39.5t12.5 53t3.5 65t-3.5 65t-12.5 53t-28 39.5t-48 13.5t-48 -13.5t-28 -39.5t-12.5 -53t-3.5 -65z" />
    <glyph glyph-name="ntilde" unicode="&#xf1;" horiz-adv-x="519" 
d="M69 0v476h111v-89h2q42 100 141 100q56 0 92.5 -39.5t36.5 -117.5v-330h-111v272q0 71 -9.5 91t-39.5 20q-52 0 -82 -56.5t-30 -120.5v-206h-111zM181 568h-59q0 73 14 105t53 32q25 0 75 -33q52 -33 58 -33q10 0 13.5 11.5t3.5 45.5h59q0 -78 -12.5 -107.5t-55.5 -29.5
q-30 0 -77 30.5t-55 30.5q-10 0 -13.5 -10.5t-3.5 -41.5z" />
    <glyph glyph-name="ograve" unicode="&#xf2;" 
d="M250 -11q-102 0 -156 65.5t-54 183.5t54 183.5t156 65.5t156 -65.5t54 -183.5t-54 -183.5t-156 -65.5zM158 238q0 -38 3.5 -65t12.5 -53t28 -39.5t48 -13.5t48 13.5t28 39.5t12.5 53t3.5 65t-3.5 65t-12.5 53t-28 39.5t-48 13.5t-48 -13.5t-28 -39.5t-12.5 -53t-3.5 -65z
M208 559l-83 167h120l46 -167h-83z" />
    <glyph glyph-name="oacute" unicode="&#xf3;" 
d="M250 -11q-102 0 -156 65.5t-54 183.5t54 183.5t156 65.5t156 -65.5t54 -183.5t-54 -183.5t-156 -65.5zM158 238q0 -38 3.5 -65t12.5 -53t28 -39.5t48 -13.5t48 13.5t28 39.5t12.5 53t3.5 65t-3.5 65t-12.5 53t-28 39.5t-48 13.5t-48 -13.5t-28 -39.5t-12.5 -53t-3.5 -65z
M208 559l46 167h120l-83 -167h-83z" />
    <glyph glyph-name="ocircumflex" unicode="&#xf4;" 
d="M250 -11q-102 0 -156 65.5t-54 183.5t54 183.5t156 65.5t156 -65.5t54 -183.5t-54 -183.5t-156 -65.5zM158 238q0 -38 3.5 -65t12.5 -53t28 -39.5t48 -13.5t48 13.5t28 39.5t12.5 53t3.5 65t-3.5 65t-12.5 53t-28 39.5t-48 13.5t-48 -13.5t-28 -39.5t-12.5 -53t-3.5 -65z
M99 559l97 149h108l97 -149h-81l-70 84l-70 -84h-81z" />
    <glyph glyph-name="otilde" unicode="&#xf5;" 
d="M250 -11q-102 0 -156 65.5t-54 183.5t54 183.5t156 65.5t156 -65.5t54 -183.5t-54 -183.5t-156 -65.5zM158 238q0 -38 3.5 -65t12.5 -53t28 -39.5t48 -13.5t48 13.5t28 39.5t12.5 53t3.5 65t-3.5 65t-12.5 53t-28 39.5t-48 13.5t-48 -13.5t-28 -39.5t-12.5 -53t-3.5 -65z
M171 568h-59q0 73 14 105t53 32q25 0 75 -33q52 -33 58 -33q10 0 13.5 11.5t3.5 45.5h59q0 -78 -12.5 -107.5t-55.5 -29.5q-30 0 -77 30.5t-55 30.5q-10 0 -13.5 -10.5t-3.5 -41.5z" />
    <glyph glyph-name="odieresis" unicode="&#xf6;" 
d="M250 -11q-102 0 -156 65.5t-54 183.5t54 183.5t156 65.5t156 -65.5t54 -183.5t-54 -183.5t-156 -65.5zM158 238q0 -38 3.5 -65t12.5 -53t28 -39.5t48 -13.5t48 13.5t28 39.5t12.5 53t3.5 65t-3.5 65t-12.5 53t-28 39.5t-48 13.5t-48 -13.5t-28 -39.5t-12.5 -53t-3.5 -65z
M85 570v111h123v-111h-123zM291 570v111h123v-111h-123z" />
    <glyph glyph-name="divide" unicode="&#xf7;" horiz-adv-x="593" 
d="M238 0v117h117v-117h-117zM59 210v90h475v-90h-475zM238 393v117h117v-117h-117z" />
    <glyph glyph-name="oslash" unicode="&#xf8;" 
d="M83 -56l-43 30l54 80q-54 65 -54 184q0 118 54 183.5t156 65.5q69 0 117 -31l51 73l43 -30l-54 -79q53 -67 53 -182q0 -118 -54 -183.5t-156 -65.5q-67 0 -116 30zM337 317l-151 -222q22 -28 64 -28q29 0 48 13.5t28 39.5t12.5 53t3.5 65q0 49 -5 79zM164 156l151 222
q-22 31 -65 31q-29 0 -48 -13.5t-28 -39.5t-12.5 -53t-3.5 -65q0 -44 6 -82z" />
    <glyph glyph-name="ugrave" unicode="&#xf9;" horiz-adv-x="519" 
d="M340 0v89h-2q-42 -100 -141 -100q-56 0 -92.5 39.5t-36.5 117.5v330h111v-272q0 -71 9.5 -91t39.5 -20q51 0 81.5 56t30.5 121v206h111v-476h-111zM218 559l-83 167h120l46 -167h-83z" />
    <glyph glyph-name="uacute" unicode="&#xfa;" horiz-adv-x="519" 
d="M340 0v89h-2q-42 -100 -141 -100q-56 0 -92.5 39.5t-36.5 117.5v330h111v-272q0 -71 9.5 -91t39.5 -20q51 0 81.5 56t30.5 121v206h111v-476h-111zM218 559l46 167h120l-83 -167h-83z" />
    <glyph glyph-name="ucircumflex" unicode="&#xfb;" horiz-adv-x="519" 
d="M340 0v89h-2q-42 -100 -141 -100q-56 0 -92.5 39.5t-36.5 117.5v330h111v-272q0 -71 9.5 -91t39.5 -20q51 0 81.5 56t30.5 121v206h111v-476h-111zM109 559l97 149h108l97 -149h-81l-70 84l-70 -84h-81z" />
    <glyph glyph-name="udieresis" unicode="&#xfc;" horiz-adv-x="519" 
d="M340 0v89h-2q-42 -100 -141 -100q-56 0 -92.5 39.5t-36.5 117.5v330h111v-272q0 -71 9.5 -91t39.5 -20q51 0 81.5 56t30.5 121v206h111v-476h-111zM95 570v111h123v-111h-123zM301 570v111h123v-111h-123z" />
    <glyph glyph-name="yacute" unicode="&#xfd;" horiz-adv-x="444" 
d="M107 -214l68 208l-176 482h116l110 -321h2l103 321h116l-237 -690h-102zM190 559l46 167h120l-83 -167h-83z" />
    <glyph glyph-name="thorn" unicode="&#xfe;" 
d="M66 -214v904h111v-280h2q10 25 43.5 51t74.5 26q164 0 164 -249q0 -111 -41 -180t-123 -69q-75 0 -118 68h-2v-271h-111zM177 238q0 -163 83 -163q35 0 54.5 26t24 58t4.5 79q0 163 -83 163q-42 0 -62.5 -49t-20.5 -114z" />
    <glyph glyph-name="ydieresis" unicode="&#xff;" horiz-adv-x="444" 
d="M107 -214l68 208l-176 482h116l110 -321h2l103 321h116l-237 -690h-102zM57 570v111h123v-111h-123zM263 570v111h123v-111h-123z" />
    <glyph glyph-name="dotlessi" unicode="&#x131;" horiz-adv-x="259" 
d="M74 0v476h111v-476h-111z" />
    <glyph glyph-name="Lslash" unicode="&#x141;" horiz-adv-x="463" 
d="M75 0v255l-75 -58v81l75 59v353h117v-261l148 116v-82l-148 -116v-258h271v-89h-388z" />
    <glyph glyph-name="lslash" unicode="&#x142;" horiz-adv-x="259" 
d="M75 0v275l-76 -59v70l76 59v345h111v-258l74 59v-70l-74 -59v-362h-111z" />
    <glyph glyph-name="OE" unicode="&#x152;" horiz-adv-x="926" 
d="M175 345q0 -273 150 -273t150 273t-150 273t-150 -273zM481 0v78h-2q-24 -39 -70 -64t-84 -25q-279 0 -279 356t279 356q41 0 84.5 -23.5t69.5 -63.5h2v76h404v-89h-287v-199h272v-89h-272v-224h295v-89h-412z" />
    <glyph glyph-name="oe" unicode="&#x153;" horiz-adv-x="778" 
d="M729 85v-77q-58 -19 -133 -19q-114 0 -179 77q-55 -77 -167 -77q-102 0 -156 65.5t-54 183.5t54 183.5t156 65.5q98 0 153 -61q61 61 156 61q89 0 135 -51.5t46 -141.5v-55h-281q0 -24 9.5 -51.5t29 -55.5t56.5 -46.5t84 -18.5q40 0 91 18zM158 238q0 -38 3.5 -65
t12.5 -53t28 -39.5t48 -13.5t48 13.5t28 39.5t12.5 53t3.5 65t-3.5 65t-12.5 53t-28 39.5t-48 13.5t-48 -13.5t-28 -39.5t-12.5 -53t-3.5 -65zM462 306h174q0 110 -85 110q-45 0 -67 -32.5t-22 -77.5z" />
    <glyph glyph-name="Scaron" unicode="&#x160;" horiz-adv-x="519" 
d="M440 682v-108q-3 1 -20 8t-23 9l-22 7.5t-26 8t-24.5 5.5t-28.5 4.5t-29 1.5q-46 0 -75 -21.5t-29 -63.5q0 -33 34 -62t82.5 -54t96.5 -54t82 -74.5t34 -103.5q0 -94 -69 -145t-185 -51q-69 0 -191 29v121l51.5 -30t61.5 -24t82 -13q63 0 92 28.5t29 67.5q0 35 -24.5 65
t-61 50l-79 45t-79 49t-61 62t-24.5 84q0 88 66.5 133t170.5 45q74 0 169 -19zM206 773l-97 149h81l70 -84l70 84h81l-97 -149h-108z" />
    <glyph glyph-name="scaron" unicode="&#x161;" horiz-adv-x="370" 
d="M315 469v-94q-64 32 -106 32q-28 0 -51 -12t-23 -32q0 -17 21.5 -34.5t52.5 -35.5t61.5 -38.5t52 -52.5t21.5 -70q0 -71 -49 -107t-131 -36q-66 0 -126 19v96q66 -29 121 -29q82 0 82 43q0 15 -21 32.5t-51.5 36.5t-60.5 40.5t-51 53t-21 66.5q0 66 46.5 103t124.5 37
q39 0 108 -18zM131 559l-97 149h81l70 -84l70 84h81l-97 -149h-108z" />
    <glyph glyph-name="Ydieresis" unicode="&#x178;" horiz-adv-x="537" 
d="M210 0v320l-227 370h133l153 -248l153 248h133l-228 -370v-320h-117zM104 784v111h123v-111h-123zM310 784v111h123v-111h-123z" />
    <glyph glyph-name="Zcaron" unicode="&#x17d;" 
d="M17 0v89l315 512h-298v89h434v-89l-315 -512h330v-89h-466zM196 773l-97 149h81l70 -84l70 84h81l-97 -149h-108z" />
    <glyph glyph-name="zcaron" unicode="&#x17e;" horiz-adv-x="389" 
d="M17 0v77l218 322h-205v77h333v-77l-218 -322h227v-77h-355zM141 559l-97 149h81l70 -84l70 84h81l-97 -149h-108z" />
    <glyph glyph-name="florin" unicode="&#x192;" horiz-adv-x="481" 
d="M100 0l74 408h-90l13 68h90l6 30q5 29 11.5 50.5t22 48.5t38 44t61 29t88.5 12q56 0 114 -13l-14 -81q-41 13 -83 13q-56 0 -84 -25t-38 -80l-5 -28h133l-12 -68h-134l-74 -408h-117z" />
    <glyph glyph-name="circumflex" unicode="&#x2c6;" horiz-adv-x="330" 
d="M14 559l97 149h108l97 -149h-81l-70 84l-70 -84h-81z" />
    <glyph glyph-name="caron" unicode="&#x2c7;" horiz-adv-x="330" 
d="M111 559l-97 149h81l70 -84l70 84h81l-97 -149h-108z" />
    <glyph glyph-name="breve" unicode="&#x2d8;" horiz-adv-x="330" 
d="M249 715h68q0 -18 -4.5 -37.5t-15.5 -41t-27.5 -38.5t-43.5 -28t-61 -11q-72 0 -112 46.5t-40 109.5h68q2 -26 24.5 -50t59.5 -24t58 24t26 50z" />
    <glyph glyph-name="dotaccent" unicode="&#x2d9;" horiz-adv-x="330" 
d="M103 570v111h123v-111h-123z" />
    <glyph glyph-name="ring" unicode="&#x2da;" horiz-adv-x="330" 
d="M165 559q-41 0 -71 30t-30 71t30 71t71 30t71 -30t30 -71t-30 -71t-71 -30zM122 660q0 -18 12.5 -30.5t30.5 -12.5t30.5 12.5t12.5 30.5t-12.5 30.5t-30.5 12.5t-30.5 -12.5t-12.5 -30.5z" />
    <glyph glyph-name="ogonek" unicode="&#x2db;" horiz-adv-x="330" 
d="M283 -176v-62q-37 -11 -66 -11q-48 0 -80 28.5t-32 71.5q0 79 88 156h58q-19 -20 -28 -30.5t-23.5 -40t-14.5 -59.5q0 -27 14.5 -47t40.5 -20q17 0 43 14z" />
    <glyph glyph-name="tilde" unicode="&#x2dc;" horiz-adv-x="330" 
d="M86 568h-59q0 73 14 105t53 32q25 0 75 -33q52 -33 58 -33q10 0 13.5 11.5t3.5 45.5h59q0 -78 -12.5 -107.5t-55.5 -29.5q-30 0 -77 30.5t-55 30.5q-10 0 -13.5 -10.5t-3.5 -41.5z" />
    <glyph glyph-name="hungarumlaut" unicode="&#x2dd;" horiz-adv-x="330" 
d="M43 559l45 167h121l-83 -167h-83zM203 559l46 167h120l-83 -167h-83z" />
    <glyph glyph-name="endash" unicode="&#x2013;" horiz-adv-x="556" 
d="M46 204v108h464v-108h-464z" />
    <glyph glyph-name="emdash" unicode="&#x2014;" horiz-adv-x="722" 
d="M45 204v108h632v-108h-632z" />
    <glyph glyph-name="quoteleft" unicode="&#x2018;" horiz-adv-x="241" 
d="M51 453l39 237h95l-9 -237h-125z" />
    <glyph glyph-name="quoteright" unicode="&#x2019;" horiz-adv-x="241" 
d="M56 453l9 237h125l-39 -237h-95z" />
    <glyph glyph-name="quotesinglbase" unicode="&#x201a;" horiz-adv-x="241" 
d="M56 -100l9 237h125l-39 -237h-95z" />
    <glyph glyph-name="quotedblleft" unicode="&#x201c;" horiz-adv-x="426" 
d="M51 453l39 237h95l-9 -237h-125zM235 453l39 237h95l-9 -237h-125z" />
    <glyph glyph-name="quotedblright" unicode="&#x201d;" horiz-adv-x="426" 
d="M56 453l9 237h125l-39 -237h-95zM240 453l9 237h125l-39 -237h-95z" />
    <glyph glyph-name="quotedblbase" unicode="&#x201e;" horiz-adv-x="426" 
d="M56 -100l9 237h125l-39 -237h-95zM240 -100l9 237h125l-39 -237h-95z" />
    <glyph glyph-name="dagger" unicode="&#x2020;" horiz-adv-x="574" 
d="M230 0v368h-200v91h200v231h115v-231h199v-91h-199v-368h-115z" />
    <glyph glyph-name="daggerdbl" unicode="&#x2021;" horiz-adv-x="593" 
d="M240 0v287h-199v91h199v69h-199v91h199v152h115v-152h199v-91h-199v-69h199v-91h-199v-287h-115z" />
    <glyph glyph-name="bullet" unicode="&#x2022;" horiz-adv-x="556" 
d="M278 164q-74 0 -127.5 53t-53.5 127q0 75 53 128.5t128 53.5t128 -53.5t53 -128.5q0 -74 -53.5 -127t-127.5 -53z" />
    <glyph glyph-name="ellipsis" unicode="&#x2026;" horiz-adv-x="722" 
d="M62 0v117h117v-117h-117zM303 0v117h117v-117h-117zM544 0v117h117v-117h-117z" />
    <glyph glyph-name="perthousand" unicode="&#x2030;" horiz-adv-x="1278" 
d="M194 197q-165 0 -165 224t165 224q166 0 166 -224t-166 -224zM114 421q0 -169 80 -169q81 0 81 169t-81 169q-80 0 -80 -169zM695 -11q-165 0 -165 224t165 224q166 0 166 -224t-166 -224zM615 213q0 -84 18.5 -126.5t61.5 -42.5q81 0 81 169t-81 169q-43 0 -61.5 -42.5
t-18.5 -126.5zM1085 -11q-166 0 -166 224t166 224q165 0 165 -224t-165 -224zM1004 213q0 -169 81 -169q43 0 61.5 42.5t18.5 126.5t-18.5 126.5t-61.5 42.5q-81 0 -81 -169zM290 0l232 634h76l-232 -634h-76z" />
    <glyph glyph-name="guilsinglleft" unicode="&#x2039;" horiz-adv-x="241" 
d="M102 60l-71 193l71 193h103l-63 -193l63 -193h-103z" />
    <glyph glyph-name="guilsinglright" unicode="&#x203a;" horiz-adv-x="241" 
d="M37 60l63 193l-63 193h103l71 -193l-71 -193h-103z" />
    <glyph glyph-name="fraction" unicode="&#x2044;" horiz-adv-x="296" 
d="M-6 0l232 634h76l-232 -634h-76z" />
    <glyph glyph-name="trademark" unicode="&#x2122;" horiz-adv-x="611" 
d="M105 400v248h-73v42h190v-42h-73v-248h-44zM255 400v290h80l48 -228h2l49 228h80v-290h-44v262h-2l-57 -262h-53l-57 262h-2v-262h-44z" />
    <glyph glyph-name="minus" unicode="&#x2212;" horiz-adv-x="593" 
d="M59 210v90h475v-90h-475z" />
    <glyph glyph-name="fi" unicode="&#xfb01;" horiz-adv-x="611" 
d="M109 0v399h-87v77h87v65q0 77 46.5 118.5t137.5 41.5q62 0 104 -10v-85q-40 17 -81 17q-96 0 -96 -114v-33h140v-77h-140v-399h-111zM427 0v476h111v-476h-111zM427 580v110h111v-110h-111z" />
    <glyph glyph-name="fl" unicode="&#xfb02;" horiz-adv-x="611" 
d="M109 0v399h-87v77h87v65q0 77 45 118.5t134 41.5q66 0 111 -10v-85q-47 17 -88 17q-91 0 -91 -114v-33h140v-77h-140v-399h-111zM427 0v690h111v-690h-111z" />
    </font>
</defs>
</svg>
